<svg xmlns="http://www.w3.org/2000/svg" xmlns:xlink="http://www.w3.org/1999/xlink" viewBox="0 0 500 500"><defs><clipPath id="freepik--clip-path--inject-37"><rect x="159.75" y="339.17" width="6.04" height="29.18" style="fill:#263238;stroke:#263238;stroke-linecap:round;stroke-linejoin:round"></rect></clipPath><clipPath id="freepik--clip-path-2--inject-37"><path d="M158.71,210.79s-44.6,3.13-46.68,6.05-.63,9.37,1,14.79,17.72,104.21,22.09,108.58,12.3,3.34,21.68,3.34S216,341.67,216,341.67s4,.83,9.8-1.25,13.34-5.42,14.38-8.54.21-8.55-.84-8.55S176,318.75,176,318.75Z" style="fill:#263238;stroke:#263238;stroke-linecap:round;stroke-linejoin:round"></path></clipPath></defs><g id="freepik--Screen--inject-37"><rect x="213.63" y="121.07" width="158.49" height="234.77" style="fill:#fff;stroke:#263238;stroke-linecap:round;stroke-linejoin:round"></rect><rect x="367.11" y="121.07" width="5.01" height="234.77" style="fill:#84C22E;stroke:#263238;stroke-linecap:round;stroke-linejoin:round"></rect><rect x="367.11" y="217.93" width="5.01" height="46.02" style="fill:#fff;stroke:#263238;stroke-linecap:round;stroke-linejoin:round"></rect><rect x="213.63" y="121.07" width="158.49" height="18.11" style="fill:#84C22E;stroke:#263238;stroke-linecap:round;stroke-linejoin:round"></rect><path d="M229.88,126.39H359.62a3.12,3.12,0,0,1,3.12,3.12v1.57a3.12,3.12,0,0,1-3.12,3.12H229.88a3.13,3.13,0,0,1-3.12-3.12v-1.57a3.13,3.13,0,0,1,3.13-3.12Z" style="fill:#fff;stroke:#263238;stroke-linecap:round;stroke-linejoin:round"></path><rect x="222.07" y="180.78" width="66.9" height="72.21" style="fill:#84C22E;stroke:#263238;stroke-linecap:round;stroke-linejoin:round"></rect><rect x="222.07" y="270.81" width="66.9" height="72.21" style="fill:#84C22E;stroke:#263238;stroke-linecap:round;stroke-linejoin:round"></rect><line x1="302.41" y1="180.78" x2="349.61" y2="180.78" style="fill:none;stroke:#263238;stroke-linecap:round;stroke-linejoin:round"></line><line x1="302.41" y1="200.16" x2="349.61" y2="200.16" style="fill:none;stroke:#263238;stroke-linecap:round;stroke-linejoin:round"></line><line x1="302.41" y1="205.48" x2="349.61" y2="205.48" style="fill:none;stroke:#263238;stroke-linecap:round;stroke-linejoin:round"></line><line x1="302.41" y1="210.79" x2="349.61" y2="210.79" style="fill:none;stroke:#263238;stroke-linecap:round;stroke-linejoin:round"></line><line x1="302.41" y1="216.11" x2="349.61" y2="216.11" style="fill:none;stroke:#263238;stroke-linecap:round;stroke-linejoin:round"></line><line x1="302.41" y1="221.42" x2="349.61" y2="221.42" style="fill:none;stroke:#263238;stroke-linecap:round;stroke-linejoin:round"></line><line x1="302.41" y1="226.73" x2="349.61" y2="226.73" style="fill:none;stroke:#263238;stroke-linecap:round;stroke-linejoin:round"></line><line x1="302.41" y1="232.05" x2="349.61" y2="232.05" style="fill:none;stroke:#263238;stroke-linecap:round;stroke-linejoin:round"></line><line x1="302.41" y1="237.36" x2="349.61" y2="237.36" style="fill:none;stroke:#263238;stroke-linecap:round;stroke-linejoin:round"></line><line x1="302.41" y1="242.68" x2="349.61" y2="242.68" style="fill:none;stroke:#263238;stroke-linecap:round;stroke-linejoin:round"></line><line x1="302.41" y1="247.99" x2="349.61" y2="247.99" style="fill:none;stroke:#263238;stroke-linecap:round;stroke-linejoin:round"></line><line x1="302.41" y1="186.1" x2="329.6" y2="186.1" style="fill:none;stroke:#263238;stroke-linecap:round;stroke-linejoin:round"></line><line x1="302.41" y1="270.81" x2="349.61" y2="270.81" style="fill:none;stroke:#263238;stroke-linecap:round;stroke-linejoin:round"></line><line x1="302.41" y1="290.19" x2="349.61" y2="290.19" style="fill:none;stroke:#263238;stroke-linecap:round;stroke-linejoin:round"></line><line x1="302.41" y1="295.51" x2="349.61" y2="295.51" style="fill:none;stroke:#263238;stroke-linecap:round;stroke-linejoin:round"></line><line x1="302.41" y1="300.82" x2="349.61" y2="300.82" style="fill:none;stroke:#263238;stroke-linecap:round;stroke-linejoin:round"></line><line x1="302.41" y1="306.14" x2="349.61" y2="306.14" style="fill:none;stroke:#263238;stroke-linecap:round;stroke-linejoin:round"></line><line x1="302.41" y1="311.45" x2="349.61" y2="311.45" style="fill:none;stroke:#263238;stroke-linecap:round;stroke-linejoin:round"></line><line x1="302.41" y1="316.77" x2="349.61" y2="316.77" style="fill:none;stroke:#263238;stroke-linecap:round;stroke-linejoin:round"></line><line x1="302.41" y1="322.08" x2="349.61" y2="322.08" style="fill:none;stroke:#263238;stroke-linecap:round;stroke-linejoin:round"></line><line x1="302.41" y1="327.39" x2="349.61" y2="327.39" style="fill:none;stroke:#263238;stroke-linecap:round;stroke-linejoin:round"></line><line x1="302.41" y1="332.71" x2="349.61" y2="332.71" style="fill:none;stroke:#263238;stroke-linecap:round;stroke-linejoin:round"></line><line x1="302.41" y1="338.02" x2="349.61" y2="338.02" style="fill:none;stroke:#263238;stroke-linecap:round;stroke-linejoin:round"></line><line x1="302.41" y1="276.13" x2="329.6" y2="276.13" style="fill:none;stroke:#263238;stroke-linecap:round;stroke-linejoin:round"></line><text transform="translate(221.52 171.13)" style="font-size:36.7052001953125px;fill:#263238;font-family:BebasNeueRegular, Bebas Neue">NEWS</text><rect x="287.25" y="166.68" width="63.4" height="3.89" style="fill:#84C22E"></rect></g><g id="freepik--Character--inject-37"><ellipse cx="202.28" cy="416.7" rx="98.08" ry="18.5" style="fill:#84C22E"></ellipse><ellipse cx="202.28" cy="416.7" rx="98.08" ry="18.5" style="fill:#fff;opacity:0.5"></ellipse><rect x="159.75" y="339.17" width="6.04" height="29.18" style="fill:#263238"></rect><g style="clip-path:url(#freepik--clip-path--inject-37)"><rect x="159.75" y="339.17" width="6.04" height="29.18" style="fill:#fff;opacity:0.4"></rect></g><rect x="159.75" y="339.17" width="6.04" height="29.18" style="fill:none;stroke:#263238;stroke-linecap:round;stroke-linejoin:round"></rect><path d="M158.71,210.79s-44.6,3.13-46.68,6.05-.63,9.37,1,14.79,17.72,104.21,22.09,108.58,12.3,3.34,21.68,3.34S216,341.67,216,341.67s4,.83,9.8-1.25,13.34-5.42,14.38-8.54.21-8.55-.84-8.55S176,318.75,176,318.75Z" style="fill:#263238"></path><g style="clip-path:url(#freepik--clip-path-2--inject-37)"><path d="M158.71,210.79s-44.6,3.13-46.68,6.05-.63,9.37,1,14.79,17.72,104.21,22.09,108.58,12.3,3.34,21.68,3.34S216,341.67,216,341.67s4,.83,9.8-1.25,13.34-5.42,14.38-8.54.21-8.55-.84-8.55S176,318.75,176,318.75Z" style="fill:#fff;opacity:0.4"></path></g><path d="M158.71,210.79s-44.6,3.13-46.68,6.05-.63,9.37,1,14.79,17.72,104.21,22.09,108.58,12.3,3.34,21.68,3.34S216,341.67,216,341.67s4,.83,9.8-1.25,13.34-5.42,14.38-8.54.21-8.55-.84-8.55S176,318.75,176,318.75Z" style="fill:none;stroke:#263238;stroke-linecap:round;stroke-linejoin:round"></path><path d="M158.09,336.25c-9.8,0-16.88.63-18.55-4s-16.67-85.24-19.17-96.91-2.92-16.88-5.84-18.34a2.7,2.7,0,0,0-3,.71c-1.32,3.2,0,9,1.52,13.88,1.67,5.42,17.72,104.21,22.09,108.58s12.3,3.34,21.68,3.34S216,341.67,216,341.67a18.26,18.26,0,0,0,7.72-.6,6.37,6.37,0,0,0,1.45-7.11C223.94,330.63,167.88,336.25,158.09,336.25Z" style="fill:#263238;stroke:#263238;stroke-linecap:round;stroke-linejoin:round"></path><path d="M212.4,180.48c-3.25-10.62-12.57-23.08-24.86-23.29-10.6-.17-16,1.74-21.37,16.34s-23.82,46.64-23.82,46.64.6.1,1.63.24c-1.24,1.43-1.94,2.26-1.94,2.26s-6.25,12.51-11.57,23.45-2.19,27.19,5.63,37.2,14.69,7.81,22.19-1.57,34.08-77.21,34.08-77.21l8.76-16.69c.68.79,1.22,1.24,1.53,1.15C203.88,188.65,214.31,186.74,212.4,180.48Z" style="fill:#263238;stroke:#263238;stroke-linecap:round;stroke-linejoin:round"></path><path d="M189.55,158.85s14.35,10,11.19,14.05" style="fill:none;stroke:#fff;stroke-linecap:round;stroke-linejoin:round;stroke-width:0.75px"></path><path d="M195.28,171.5a113.78,113.78,0,0,1-11.46,14.6c-11.19,12.33-33.85,23.81-35.29,29.83" style="fill:none;stroke:#fff;stroke-linecap:round;stroke-linejoin:round;stroke-width:0.75px"></path><path d="M197.87,166.88a25.38,25.38,0,0,1-1.28,2.47" style="fill:none;stroke:#fff;stroke-linecap:round;stroke-linejoin:round;stroke-width:0.75px"></path><path d="M149.65,210.26c-2.55,2.94-4.27,5.67-4.56,7.68" style="fill:none;stroke:#fff;stroke-linecap:round;stroke-linejoin:round;stroke-width:0.75px"></path><path d="M183.24,160s-2-1.14-5.16,9.18-11.76,26.39-18.93,32.13a81.12,81.12,0,0,0-6.26,5.53" style="fill:none;stroke:#fff;stroke-linecap:round;stroke-linejoin:round;stroke-width:0.75px"></path><path d="M136.23,251c-1.66,7.49-3,17.47-.6,24.34,4.3,12.33,9.75,10.32,10.61,4.59s-4-6-5.45-4,2,4.59,2,4.59" style="fill:none;stroke:#fff;stroke-linecap:round;stroke-linejoin:round;stroke-width:0.75px"></path><path d="M139.07,240.6s-.81,2.35-1.77,5.94" style="fill:none;stroke:#fff;stroke-linecap:round;stroke-linejoin:round;stroke-width:0.75px"></path><path d="M216.74,289.11s18.42-3.65,21.38-1.22,1.56,18.08-6.43,22.25-26.07-1.39-26.07-1.39Z" style="fill:#fff;stroke:#263238;stroke-linecap:round;stroke-linejoin:round"></path><path d="M206.14,306.46s19.64,6.78,22.42,11,1.22,26.94.52,36.85-.87,40.32,1.91,49.53,4.52,14.43,6.26,16.69,10.6,6.95,9.91,8.34-8.35,1.39-12.52.17-8.51-6.08-12.16-9.21-4.52-3.13-4.52-3.13l1.39,11-2.09-.35s-.34-7.12-1.74-10.95-3.3-4.34-1.91-7.47,7.13-6.78,7.13-6.78a120.41,120.41,0,0,0-3.48-22.94c-3.13-12.34-7.3-18.6-7.82-32.85s2.61-18.77,2.61-18.77l-20.86.35Z" style="fill:#fff;stroke:#263238;stroke-linecap:round;stroke-linejoin:round"></path><path d="M234.64,429c4.17,1.22,11.82,1.22,12.52-.17.6-1.21-6-4.92-8.9-7.35a11.14,11.14,0,0,1-2.23.22c-3.12,0-8.69-2.95-14.77-9.56-3.06-3.32-3.83-5.89-3.84-7.63a14.23,14.23,0,0,0-3.81,4.33c-1.39,3.13.52,3.65,1.91,7.47s1.74,10.95,1.74,10.95l2.09.35-1.39-11s.87,0,4.52,3.13S230.47,427.78,234.64,429Z" style="fill:#263238;stroke:#263238;stroke-linecap:round;stroke-linejoin:round"></path><path d="M227,287.89c8.51-1.56,11.81-.87,13.38,1.39s4.34,25.55,4.52,38.07,6.25,28.15,7.47,38.06a73,73,0,0,0,6.95,22.42c2.09,4.34,5.39,4.34,6.61,6.26s-4.52,2.25-7.65,2.25-9.91-4.69-11.82-8.51a8.36,8.36,0,0,0-5.21-4.52s-.52,9-1.22,9.39-1.22-.53-1.22-.53,0-5.73-.17-8.34-1.74-6.78-1.91-8.86,5.91-4.87,5.91-4.87-3-14.77-5.39-21S227,330.47,223,320.92s-1-23.64-1-23.64" style="fill:#fff;stroke:#263238;stroke-linecap:round;stroke-linejoin:round"></path><path d="M260.89,390.17a5.45,5.45,0,0,1-3,1.31c-2.43.17-7.3-2.61-12.34-10.08-3.67-5.45-4.11-9.14-4.08-10.74-1.75.92-4.91,2.79-4.78,4.31.17,2.08,1.74,6.25,1.91,8.86s.17,8.34.17,8.34.53.87,1.22.53,1.22-9.39,1.22-9.39a8.32,8.32,0,0,1,5.21,4.52c1.91,3.82,8.69,8.51,11.82,8.51s8.86-.34,7.65-2.25C265,392.61,262.8,392.26,260.89,390.17Z" style="fill:#263238;stroke:#263238;stroke-linecap:round;stroke-linejoin:round"></path><path d="M192.76,219.07a9,9,0,0,1,4.52,6.08c.86,4.35,2.6,48.66,3.12,49.53s13,11.13,13,11.13l-4,4.69s-12.86-6.26-16.86-9.56-5.56-4.69-4.86-10.43,2.6-34.24,2.6-38.58S190.15,217,192.76,219.07Z" style="fill:#84C22E;stroke:#263238;stroke-linecap:round;stroke-linejoin:round"></path><path d="M174,210s-16.51,6.08-22.77,8.34-12.52,1.74-12.86,3.65,4.17,26.42,7.47,36.67,5.39,16.69,4.87,20-14.6,21.21-10.6,37.54,30.24,15.64,45.88,15.47,15-.87,15-.87l19.81-42.23-26.25,3.82s-10.77-8-9.73-12.34,6.09-13.21,7.3-17.9,3.13-15.29,1.39-22.07,2.44-19.12-.69-21S177.46,210,174,210Z" style="fill:#84C22E;stroke:#263238;stroke-linecap:round;stroke-linejoin:round"></path><path d="M150.38,301.87s7.71-5.84,17.08-4.59,32.1,9,32.1,9" style="fill:none;stroke:#263238;stroke-linecap:round;stroke-linejoin:round"></path><path d="M145.58,301.66s2.09-4.59,9-6.46" style="fill:none;stroke:#263238;stroke-linecap:round;stroke-linejoin:round"></path><path d="M213.44,285.81a27,27,0,0,1,6.75-.72,14.06,14.06,0,0,1,10.35,5.18s.87,2.23-.57,2.37-4.42-1.56-7.16-1.7a31.86,31.86,0,0,1-5.36-.82s3.31,2.74,2.3,3-4-1.29-5.17-1.72-3.74-.86-4.89-2S213.44,285.81,213.44,285.81Z" style="fill:#fff;stroke:#263238;stroke-linecap:round;stroke-linejoin:round"></path><path d="M229.89,292a27.45,27.45,0,0,0-3.82-2.23c-1.28-.47-5.33-1.21-5.33-1.21" style="fill:none;stroke:#263238;stroke-linecap:round;stroke-linejoin:round;stroke-width:0.5px"></path><path d="M222.56,287.26s3.51,1.11,4.94,1.75a11.23,11.23,0,0,1,3,2.55" style="fill:none;stroke:#263238;stroke-linecap:round;stroke-linejoin:round;stroke-width:0.5px"></path><path d="M167.65,212.14s-4,2.88.43,17.36c2.54,8.24,12.34,33.89,12.51,32.5s2.61-17.56,2.43-26.42a68.45,68.45,0,0,0-3.47-21.21C177.81,209.68,171.13,208.67,167.65,212.14Z" style="fill:#fff;stroke:#263238;stroke-linecap:round;stroke-linejoin:round"></path><path d="M165.64,216.46a43.13,43.13,0,0,0,1.57,8.86c1.21,3.65,2.95,7.48,2.95,7.48s5.91-4.87,6.43-4.87,6.43,3.13,6.43,2.43a84.3,84.3,0,0,0-3.12-14.6c-2.09-6.6-7.62-8.45-10.74-6S165.64,216.46,165.64,216.46Z" style="fill:#fff;stroke:#263238;stroke-linecap:round;stroke-linejoin:round"></path><path d="M175.57,201.52l-4.2,12c.29.94.65,2.1,1,3.62,1.39,5.21,4.17,12.16,5,12.51s-.52-5.91.87-11.12,4.35-12.87,4.52-13.39l-5.74-3.89Z" style="fill:#fff;stroke:#263238;stroke-linecap:round;stroke-linejoin:round"></path><path d="M198.88,174.62c-3.87,5-9.12,11.45-13.77,16.29-8.69,9-10.31,10-8.77,10.87,2.25,2,9.06,8.12,11.55,9.29,3,1.39,4.17-1.39,8.69-5.56s8.69-16.86,7.82-20.86A21.18,21.18,0,0,0,198.88,174.62Z" style="fill:#fff;stroke:#263238;stroke-linecap:round;stroke-linejoin:round"></path><path d="M198.49,191.26s-1.91,4.17-1.91,6.6.52,2.26,0,2.44-4-1.57-4-1.57" style="fill:none;stroke:#263238;stroke-linecap:round;stroke-linejoin:round"></path><path d="M190.15,202.56s-3.48-.53-4-3.83" style="fill:none;stroke:#263238;stroke-linecap:round;stroke-linejoin:round"></path><path d="M192.89,192c-.29.71-.78,1.19-1.09,1.06s-.33-.81,0-1.52.77-1.18,1.08-1.06S193.17,191.3,192.89,192Z" style="fill:#263238"></path><ellipse cx="199.88" cy="194.04" rx="1.39" ry="0.61" transform="translate(-54.98 306.51) rotate(-67.96)" style="fill:#263238"></ellipse><path d="M190,186.74s3.47-2.78,5.73-1.39" style="fill:none;stroke:#263238;stroke-linecap:round;stroke-linejoin:round"></path><path d="M200.75,187.26s2.61-.35,2.78,2.78" style="fill:none;stroke:#263238;stroke-linecap:round;stroke-linejoin:round"></path><polygon points="223.88 239.34 227.19 223.52 235.36 222.3 232.24 237.02 223.88 239.34" style="fill:#263238;stroke:#263238;stroke-linecap:round;stroke-linejoin:round"></polygon><path d="M203.71,255,216.25,248l4-10.84a4.43,4.43,0,0,1,3.2-.42,8.35,8.35,0,0,0,2.78.56l7.64-2.23s.7-.42.7,1-.42,1.94-1.39,3.19-1,3.06-1.39,5-2.78,3.34-4.59,3.89-7.79,4.31-8.62,4.87-13.35,7.64-13.35,7.64Z" style="fill:#fff;stroke:#263238;stroke-linecap:round;stroke-linejoin:round"></path><line x1="226.27" y1="237.26" x2="221.54" y2="239.2" style="fill:#fff;stroke:#263238;stroke-linecap:round;stroke-linejoin:round"></line><path d="M142,234.36s19.64,48,21.55,49.71S207.7,261,207.7,261l-4.34-8.17-31.81,10.61-15.64-36.33" style="fill:#84C22E;stroke:#263238;stroke-linecap:round;stroke-linejoin:round"></path><path d="M205.81,418.16l-28.22-10.49c6.3-1.25,22.83-4.52,23.84-4.52,1.26,0,.21-3.33.21-3.33l-33.13,2.1V366.68H156.63v34.95l-29.18-.56-.42,2.5L149,408,116.41,421.7v3.12L164.76,413l41.26,9Z" style="fill:#263238;stroke:#263238;stroke-linecap:round;stroke-linejoin:round"></path><path d="M122.66,426.6a2.82,2.82,0,1,1-2.82-2.82A2.81,2.81,0,0,1,122.66,426.6Z" style="fill:#263238;stroke:#263238;stroke-linecap:round;stroke-linejoin:round"></path><path d="M206.44,423.89a2.82,2.82,0,1,1-2.82-2.82A2.81,2.81,0,0,1,206.44,423.89Z" style="fill:#263238;stroke:#263238;stroke-linecap:round;stroke-linejoin:round"></path><path d="M131.83,405.86a2.09,2.09,0,1,1-2.09-2.08A2.09,2.09,0,0,1,131.83,405.86Z" style="fill:#263238;stroke:#263238;stroke-linecap:round;stroke-linejoin:round"></path><path d="M202.06,405.23a2.09,2.09,0,1,1-2.08-2.08A2.08,2.08,0,0,1,202.06,405.23Z" style="fill:#263238;stroke:#263238;stroke-linecap:round;stroke-linejoin:round"></path></g></svg>